<svg id="Capa_1" data-name="Capa 1" xmlns="http://www.w3.org/2000/svg" viewBox="0 0 769.63 175.53"><defs><style>.cls-1{fill:none;}.cls-2{fill:#fff;}</style></defs><path class="cls-1" d="M524.62,348.21h-2.74V356h2.74c2.51,0,4.14-1.54,4.14-3.87S527.13,348.21,524.62,348.21Z" transform="translate(-11.18 -223.82)"/><path class="cls-1" d="M244.22,324.77s0-.06,0-.09a.09.09,0,0,1,0-.05l0-.08s0,0,0,0l-.06-.09,0,0-.09-.1,0,0-.09-.06-.05,0-.06,0-6.44-2.69V297.15a.79.79,0,0,0-.85-.72H199a.79.79,0,0,0-.86.72v24.32l-6.24,2.69,0,0-.05,0-.08.06,0,0-.09.09v0a.36.36,0,0,0-.07.1.08.08,0,0,1,0,0l0,.08a.07.07,0,0,1,0,.05s0,.06,0,.09v2a.79.79,0,0,0,.85.72h51.06a.79.79,0,0,0,.85-.72v-2Zm-44.35-26.9h35.74v23.32H199.87Zm-.65,24.76h37l3.47,1.45H195.85Zm43.3,3.4H193.16v-.51h49.36Z" transform="translate(-11.18 -223.82)"/><path class="cls-1" d="M475.87,277.67c0-12.53-8.51-20.29-21.51-20.29H440.52V298h13.84C467.36,298,475.87,290.2,475.87,277.67Z" transform="translate(-11.18 -223.82)"/><path class="cls-1" d="M493.66,348.21h-2.74V356h2.74c2.51,0,4.14-1.54,4.14-3.87S496.17,348.21,493.66,348.21Z" transform="translate(-11.18 -223.82)"/><path class="cls-1" d="M271.28,369.69h-2.44v4.48h2.44c1.84,0,2.79-.83,2.79-2.24S273.12,369.69,271.28,369.69Z" transform="translate(-11.18 -223.82)"/><path class="cls-1" d="M232,299.4H203.51a.83.83,0,0,0-.85.81v18.28a.83.83,0,0,0,.85.81H232a.83.83,0,0,0,.85-.81V300.21A.83.83,0,0,0,232,299.4Zm-.85,18.28H204.37V301h26.74Z" transform="translate(-11.18 -223.82)"/><path class="cls-1" d="M75.67,298.24l-.11,0h0a.86.86,0,0,0-.27-.05H71.5a.78.78,0,0,0-.4.12.83.83,0,0,0-.16.09l-2.44,2.11a1.17,1.17,0,0,0,0,1.81l.07,0,1.4,3.63.63-.09-.53-3.69a1.29,1.29,0,0,0,.16-.17l1.41-2.19h3.49l1.68,2a1,1,0,0,0,.25.2l.15,3.84.64,0,.76-4a1.16,1.16,0,0,0-.27-1.72Zm-6,3.35a.47.47,0,0,1-.51.15.45.45,0,0,1-.26-.59A.75.75,0,0,1,69,301a.47.47,0,0,1,.5-.14.42.42,0,0,1,.21.16A.45.45,0,0,1,69.66,301.59Zm2-2.44a.36.36,0,0,1-.39.11.35.35,0,0,1-.15-.55.36.36,0,0,1,.39-.11A.35.35,0,0,1,71.63,299.15Zm3.74.08a.34.34,0,0,1-.39-.41.36.36,0,0,1,.29-.28.35.35,0,0,1,.39.42A.34.34,0,0,1,75.37,299.23Zm2.37,2.2a.45.45,0,0,1-.51-.51v0a.46.46,0,0,1,.38-.36.45.45,0,0,1,.5.35.59.59,0,0,1,0,.19A.47.47,0,0,1,77.74,301.43Z" transform="translate(-11.18 -223.82)"/><path class="cls-1" d="M586.41,348.21H584v4.5h2.44c1.84,0,2.79-.84,2.79-2.26S588.25,348.21,586.41,348.21Z" transform="translate(-11.18 -223.82)"/><polygon class="cls-1" points="547.62 129.64 551.86 129.64 549.74 124.71 547.62 129.64"/><path class="cls-1" d="M573.83,348.21h-2.44v4.5h2.44c1.84,0,2.79-.84,2.79-2.26S575.67,348.21,573.83,348.21Z" transform="translate(-11.18 -223.82)"/><path class="cls-1" d="M157.58,347.46A21.15,21.15,0,0,0,139,336.2h-.34a21.17,21.17,0,0,0-18.55,11.26c-.17.32-.33.64-.49,1a21.16,21.16,0,0,0,.19,18.23q.24.51.51,1a21.24,21.24,0,0,0,18.33,10.88H139a21.23,21.23,0,0,0,18.34-10.88c.18-.32.35-.65.52-1a21.11,21.11,0,0,0,.17-18.25C157.91,348.1,157.75,347.78,157.58,347.46Zm-26-7.85a17.51,17.51,0,0,0-2.25,3,23.77,23.77,0,0,0-2.13,4.61H122.6A19.45,19.45,0,0,1,131.6,339.61Zm-10.09,9.57h5.12a32.39,32.39,0,0,0-1,7.2H119.7A19.07,19.07,0,0,1,121.51,349.18Zm-1.81,9.19h5.93a31.73,31.73,0,0,0,1.1,7.58h-5A18.93,18.93,0,0,1,119.7,358.37Zm3.15,9.56h4.51a22.56,22.56,0,0,0,2,4.23,17,17,0,0,0,2.25,3A19.4,19.4,0,0,1,122.85,367.93Zm15,8.56c-3.4-.51-6.48-3.65-8.39-8.56h8.39Zm0-10.54H128.8a29.59,29.59,0,0,1-1.18-7.58h10.25Zm0-9.57H127.62a29.59,29.59,0,0,1,1.07-7.2h9.18Zm0-9.19h-8.54c1.88-5.06,5.08-8.4,8.54-8.93Zm17.26,0h-4.62a23.75,23.75,0,0,0-2.12-4.61,17.51,17.51,0,0,0-2.25-3A19.42,19.42,0,0,1,155.13,347.19Zm-15.27-8.93c3.46.53,6.66,3.87,8.54,8.93h-8.54Zm0,10.92h9.19a30.59,30.59,0,0,1,1.07,7.2H139.86Zm0,9.19h10.26a30,30,0,0,1-1.18,7.58h-9.08Zm0,18.12v-8.56h8.4C146.35,372.84,143.27,376,139.86,376.49Zm6.28-1.36a17.51,17.51,0,0,0,2.25-3,23.89,23.89,0,0,0,2-4.23h4.51A19.4,19.4,0,0,1,146.14,375.13ZM156,366h-5a32.17,32.17,0,0,0,1.11-7.58H158A18.92,18.92,0,0,1,156,366Zm-3.93-9.57a32.39,32.39,0,0,0-1-7.2h5.11a18.71,18.71,0,0,1,1.81,7.2Z" transform="translate(-11.18 -223.82)"/><path class="cls-1" d="M752.76,298.71c7.58,0,12.81-6.17,12.81-21s-5.23-21-12.81-21-12.71,6.18-12.71,21S745.28,298.71,752.76,298.71Z" transform="translate(-11.18 -223.82)"/><path class="cls-1" d="M461.9,348.12a4,4,0,1,0,4,4A3.84,3.84,0,0,0,461.9,348.12Z" transform="translate(-11.18 -223.82)"/><path class="cls-1" d="M447.36,348.21h-2.74V356h2.74c2.51,0,4.14-1.54,4.14-3.87S449.87,348.21,447.36,348.21Z" transform="translate(-11.18 -223.82)"/><polygon class="cls-1" points="323.81 151.12 328.05 151.12 325.93 146.19 323.81 151.12"/><polygon class="cls-1" points="420.86 129.64 425.09 129.64 422.97 124.71 420.86 129.64"/><polygon class="cls-1" points="269.72 151.12 273.95 151.12 271.83 146.19 269.72 151.12"/><polygon class="cls-1" points="429.15 151.12 433.38 151.12 431.26 146.19 429.15 151.12"/><path class="cls-1" d="M424,369.69h-2.45v4.49H424c1.83,0,2.79-.84,2.79-2.25S425.8,369.69,424,369.69Z" transform="translate(-11.18 -223.82)"/><path class="cls-1" d="M476.57,369.57c-1.53,0-2.6,1.26-2.6,4s1.07,4,2.6,4,2.61-1.25,2.61-4S478.12,369.57,476.57,369.57Z" transform="translate(-11.18 -223.82)"/><path class="cls-1" d="M295.93,369.69h-2.45v4.49h2.45c1.83,0,2.78-.84,2.78-2.25S297.76,369.69,295.93,369.69Z" transform="translate(-11.18 -223.82)"/><polygon class="cls-1" points="295.16 151.12 299.4 151.12 297.27 146.19 295.16 151.12"/><path class="cls-1" d="M319.75,348.21H317.3v4.5h2.45c1.84,0,2.79-.84,2.79-2.26S321.59,348.21,319.75,348.21Z" transform="translate(-11.18 -223.82)"/><path class="cls-1" d="M475.54,348.21h-2.45v4.5h2.45c1.84,0,2.79-.84,2.79-2.26S477.38,348.21,475.54,348.21Z" transform="translate(-11.18 -223.82)"/><path class="cls-1" d="M375.36,369.69h-2.74v7.73h2.74c2.51,0,4.14-1.53,4.14-3.87S377.87,369.69,375.36,369.69Z" transform="translate(-11.18 -223.82)"/><circle class="cls-1" cx="52.31" cy="66.78" r="1.1"/><path class="cls-1" d="M727.43,348.12a4,4,0,1,0,4,4A3.84,3.84,0,0,0,727.43,348.12Z" transform="translate(-11.18 -223.82)"/><path class="cls-1" d="M329.09,352.08a4,4,0,1,0,4-4A3.84,3.84,0,0,0,329.09,352.08Z" transform="translate(-11.18 -223.82)"/><path class="cls-1" d="M702.82,348.12a4,4,0,1,0,4,4A3.84,3.84,0,0,0,702.82,348.12Z" transform="translate(-11.18 -223.82)"/><path class="cls-1" d="M44.86,301.1a1.88,1.88,0,0,0-.24.25,1.79,1.79,0,0,0,2.58,2.46,1.79,1.79,0,0,0-2.34-2.71Z" transform="translate(-11.18 -223.82)"/><path class="cls-1" d="M119.51,274.54v5.77a3.48,3.48,0,1,0,2.19,0v-5l3.79-4.5h6.14v3.06l-3.28,2v4.4a3.48,3.48,0,1,0,2.19,0v-3.18l3.28-2v-4.29h3.82v9.47a3.47,3.47,0,1,0,2.18,0v-9.47h3.83v4.29l3.28,2v3.18a3.47,3.47,0,1,0,2.18,0v-4.4l-3.28-2v-3.06H152l3.79,4.5v5a3.47,3.47,0,1,0,2.18,0v-5.77l-4.37-5.19v-7.07a3.48,3.48,0,1,0-2.19,0v6.38h-5.56V251.11H153a3.48,3.48,0,1,0,0-2.19h-9.35v19.74h-3.83V251.29a3.47,3.47,0,1,0-2.18,0v17.37h-3.82V248.92h-9.36a3.48,3.48,0,1,0,0,2.19h7.17v17.55h-5.56v-6.38a3.47,3.47,0,1,0-2.18,0v7.07Zm2.38,9.07a1.29,1.29,0,1,1-1.29-1.29A1.29,1.29,0,0,1,121.89,283.61Zm8.84,0a1.29,1.29,0,1,1-1.29-1.29A1.29,1.29,0,0,1,130.73,283.61ZM148,282.32a1.29,1.29,0,1,1-1.29,1.29A1.29,1.29,0,0,1,148,282.32Zm8.84,0a1.29,1.29,0,1,1-1.29,1.29A1.29,1.29,0,0,1,156.86,282.32ZM151.2,259a1.29,1.29,0,1,1,1.28,1.29A1.28,1.28,0,0,1,151.2,259Zm5.1-10.25A1.29,1.29,0,1,1,155,250,1.28,1.28,0,0,1,156.3,248.73ZM137.44,248a1.29,1.29,0,1,1,1.29,1.28A1.29,1.29,0,0,1,137.44,248Zm1.29,34.32a1.29,1.29,0,1,1-1.29,1.29A1.29,1.29,0,0,1,138.73,282.32Zm-17.57-31a1.29,1.29,0,1,1,1.29-1.29A1.28,1.28,0,0,1,121.16,251.3Zm2.53,7.68a1.29,1.29,0,1,1,1.29,1.29A1.29,1.29,0,0,1,123.69,259Z" transform="translate(-11.18 -223.82)"/><path class="cls-1" d="M73.53,290.75s.06,0,.09,0a.67.67,0,0,0,.36-.87.75.75,0,0,0-.29-.32.76.76,0,0,0-.16-.06.64.64,0,0,0-.43,0l-.07,0a.67.67,0,0,0-.29.83A.65.65,0,0,0,73.53,290.75Z" transform="translate(-11.18 -223.82)"/><path class="cls-1" d="M773.25,348.12a4,4,0,1,0,4,4A3.84,3.84,0,0,0,773.25,348.12Z" transform="translate(-11.18 -223.82)"/><path class="cls-1" d="M634.78,348.12a4,4,0,1,0,4,4A3.84,3.84,0,0,0,634.78,348.12Z" transform="translate(-11.18 -223.82)"/><path class="cls-1" d="M57.29,313.38a1.41,1.41,0,1,0,.34,1,1.38,1.38,0,0,0-.33-1Z" transform="translate(-11.18 -223.82)"/><path class="cls-1" d="M376.05,348.21H373.6v4.5h2.45c1.84,0,2.79-.84,2.79-2.26S377.89,348.21,376.05,348.21Z" transform="translate(-11.18 -223.82)"/><path class="cls-1" d="M599.72,348.12a4,4,0,1,0,4,4A3.84,3.84,0,0,0,599.72,348.12Z" transform="translate(-11.18 -223.82)"/><path class="cls-1" d="M67.55,324.13h0c0-.05,0-.1,0-.15s0-.19,0-.28h0a4.17,4.17,0,0,0-2.06-2.35c1.61-2.58,1.56-5.05-.15-7a5.37,5.37,0,0,0-4.08-1.68,5.62,5.62,0,0,0-.18-.79,5.22,5.22,0,0,0,.6-3.2c-.41-2.22-2.68-3.53-4.67-4.68a11,11,0,0,1-2.65-1.85,1.76,1.76,0,0,1-.48-1.43,2.64,2.64,0,0,1,.62-1.25l.37.58.45-.29.26.39,9.75-7.2a3.34,3.34,0,0,0,.61-.64h2.18v-1.19h2.39v1.19h1.92V295h-.11a1.52,1.52,0,0,0-.58,1.21v1.43h3.14v-1.44a1.57,1.57,0,0,0-.58-1.21h-.18v-2.81a2.19,2.19,0,0,0-.77-4.25H70.44v1.19H68.05v-1.2H64.76a3,3,0,0,0-2.71.1l-6.63,3.75-.26-.45-.82.47a7.26,7.26,0,0,0-3.61-2.27,6.23,6.23,0,0,0-7.66,6.88,11.6,11.6,0,0,0,.23,1.45,6.76,6.76,0,0,0-.77.55,5.69,5.69,0,0,0-.58,8L51,316.89l.26.3a5.48,5.48,0,0,0,1.33,1.09H49.84v1.87h-.59c-2.61.7-4.55,1.89-5,3.54h-.15a1.67,1.67,0,0,0,0,.32v7.84h-.48v3.42l25.31,0v-3.43H67.54Zm4.82-34.57v0a1,1,0,0,1,.41-.41,1.25,1.25,0,0,1,.12-.08,1.16,1.16,0,0,1,1.52.62,1.15,1.15,0,0,1-.37,1.34,1,1,0,0,1-.25.17,1.15,1.15,0,0,1-1,0,1.11,1.11,0,0,1-.49-.47,1.05,1.05,0,0,1-.07-.11A1.13,1.13,0,0,1,72.37,289.56Zm-10.51.1a1.84,1.84,0,0,1,.6-.64,1.89,1.89,0,1,1,2.06,3.17,1.3,1.3,0,0,1-.26.14,1.89,1.89,0,0,1-2.4-2.67ZM48,304.72a3,3,0,0,1-3.92-4.53,3,3,0,0,1,2.43-.67,2.9,2.9,0,0,1,1.79,1,2.94,2.94,0,0,1,.7,1.58A3,3,0,0,1,48,304.72Zm1.13-6.89a5.73,5.73,0,0,0-4.86-.43,8.75,8.75,0,0,1-.16-1.08,5.18,5.18,0,0,1,6.38-5.79,6.22,6.22,0,0,1,3,1.79l-.75.44.25.43-1.41.8.25.39-.45.3.79,1.23Zm2,23.06h.28a4.88,4.88,0,0,0-1.51,1.27l0,0h-.28a3,3,0,0,1,.23-.27A5.64,5.64,0,0,1,51.14,320.89Zm-.38,0a5.88,5.88,0,0,0-.92.65,3.36,3.36,0,0,0-.61.64H49a3.64,3.64,0,0,1,.89-.86c.21-.15.42-.3.64-.43Zm-.92,0h.26l-.26.17a4.14,4.14,0,0,0-1.27,1.12h-.28a4.65,4.65,0,0,1,1.53-1.29Zm-.68,0h.28a4.79,4.79,0,0,0-1.54,1.29h-.27A4.65,4.65,0,0,1,49.16,320.89Zm1.37,10.41H46.74v-3.48h3.78Zm0-9.14,0,0h-.28l0,0a5,5,0,0,1,1.51-1.27h.28A4.88,4.88,0,0,0,50.57,322.16Zm.66,0v0h-.28v0a4.91,4.91,0,0,1,1.52-1.27h.27A4.88,4.88,0,0,0,51.23,322.16Zm.67,0,0,0H51.6l0,0a4.88,4.88,0,0,1,1.51-1.27h.27A4.84,4.84,0,0,0,51.9,322.16Zm2.35,4.16a.63.63,0,1,1-.63-.64.63.63,0,0,1,.63.64Zm1.51.63a.63.63,0,0,1-.63-.63.64.64,0,0,1,.63-.64.64.64,0,0,1,.63.64A.63.63,0,0,1,55.76,327Zm2.14,0a.63.63,0,1,1,.63-.63A.63.63,0,0,1,57.9,327Zm-.13-10.87a2.35,2.35,0,1,1,.24-3.32,2.54,2.54,0,0,1,.23.34,2.33,2.33,0,0,1,.33,1A2.37,2.37,0,0,1,57.77,316.08ZM60,327a.63.63,0,0,1,0-1.26.64.64,0,0,1,.64.63A.64.64,0,0,1,60,327Zm-.18-17.2-8.16-9.42L54,298.85l.27.42a3,3,0,0,0-.72,1.43,2,2,0,0,0,.54,1.64,11,11,0,0,0,2.71,1.9c1.95,1.13,4.16,2.4,4.54,4.51a4.73,4.73,0,0,1-.45,2.79A5.81,5.81,0,0,0,59.86,309.75ZM63,320.33v-2H61.33v-3.91a4.76,4.76,0,0,0-.07-.66,4.33,4.33,0,0,1,3.23,1.34c1.42,1.59,1.42,3.6,0,5.82A11.12,11.12,0,0,0,63,320.33Z" transform="translate(-11.18 -223.82)"/><path class="cls-2" d="M125,260.27a1.29,1.29,0,1,0-1.29-1.29A1.29,1.29,0,0,0,125,260.27Z" transform="translate(-11.18 -223.82)"/><path class="cls-2" d="M156.3,251.3A1.29,1.29,0,1,0,155,250,1.29,1.29,0,0,0,156.3,251.3Z" transform="translate(-11.18 -223.82)"/><path class="cls-2" d="M129.44,282.32a1.29,1.29,0,1,0,1.29,1.29A1.28,1.28,0,0,0,129.44,282.32Z" transform="translate(-11.18 -223.82)"/><path class="cls-2" d="M121.16,248.73a1.29,1.29,0,0,0,0,2.57,1.29,1.29,0,1,0,0-2.57Z" transform="translate(-11.18 -223.82)"/><path class="cls-2" d="M120.6,282.32a1.29,1.29,0,1,0,1.29,1.29A1.28,1.28,0,0,0,120.6,282.32Z" transform="translate(-11.18 -223.82)"/><path class="cls-2" d="M138.73,284.9a1.29,1.29,0,1,0-1.29-1.29A1.29,1.29,0,0,0,138.73,284.9Z" transform="translate(-11.18 -223.82)"/><path class="cls-2" d="M156.86,284.9a1.29,1.29,0,1,0-1.29-1.29A1.29,1.29,0,0,0,156.86,284.9Z" transform="translate(-11.18 -223.82)"/><path class="cls-2" d="M163,307.78l24.24-42-24.24-42H114.5l-24.24,42,24.24,42ZM121.51,259a3.47,3.47,0,1,1,4.56,3.3v6.38h5.56V251.11h-7.17a3.48,3.48,0,1,1,0-2.19h9.36v19.74h3.82V251.29a3.47,3.47,0,1,1,2.18,0v17.37h3.83V248.92H153a3.48,3.48,0,1,1,0,2.19h-7.17v17.55h5.56v-6.38a3.48,3.48,0,1,1,2.19,0v7.07l4.37,5.19v5.77a3.47,3.47,0,1,1-2.18,0v-5l-3.79-4.5h-6.15v3.06l3.28,2v4.4a3.47,3.47,0,1,1-2.18,0v-3.18l-3.28-2v-4.29h-3.83v9.47a3.47,3.47,0,1,1-2.18,0v-9.47h-3.82v4.29l-3.28,2v3.18a3.48,3.48,0,1,1-2.19,0v-4.4l3.28-2v-3.06h-6.14l-3.79,4.5v5a3.48,3.48,0,1,1-2.19,0v-5.77l4.38-5.19v-7.07A3.48,3.48,0,0,1,121.51,259Z" transform="translate(-11.18 -223.82)"/><path class="cls-2" d="M152.48,260.27A1.29,1.29,0,1,0,151.2,259,1.29,1.29,0,0,0,152.48,260.27Z" transform="translate(-11.18 -223.82)"/><path class="cls-2" d="M148,284.9a1.29,1.29,0,1,0-1.29-1.29A1.29,1.29,0,0,0,148,284.9Z" transform="translate(-11.18 -223.82)"/><path class="cls-2" d="M138.73,249.28a1.29,1.29,0,1,0-1.29-1.28A1.28,1.28,0,0,0,138.73,249.28Z" transform="translate(-11.18 -223.82)"/><path class="cls-2" d="M128.8,366h9.07v-7.58H127.62A29.59,29.59,0,0,0,128.8,366Z" transform="translate(-11.18 -223.82)"/><path class="cls-2" d="M137.87,376.49v-8.56h-8.39C131.39,372.84,134.47,376,137.87,376.49Z" transform="translate(-11.18 -223.82)"/><path class="cls-2" d="M129.33,347.19h8.54v-8.93C134.41,338.79,131.21,342.13,129.33,347.19Z" transform="translate(-11.18 -223.82)"/><path class="cls-2" d="M127.62,356.38h10.25v-7.2h-9.18A29.59,29.59,0,0,0,127.62,356.38Z" transform="translate(-11.18 -223.82)"/><path class="cls-2" d="M127.36,367.93h-4.51a19.4,19.4,0,0,0,8.75,7.2,17,17,0,0,1-2.25-3A22.56,22.56,0,0,1,127.36,367.93Z" transform="translate(-11.18 -223.82)"/><path class="cls-2" d="M129.35,342.58a17.51,17.51,0,0,1,2.25-3,19.45,19.45,0,0,0-9,7.58h4.62A23.77,23.77,0,0,1,129.35,342.58Z" transform="translate(-11.18 -223.82)"/><path class="cls-2" d="M126.63,349.18h-5.12a19.07,19.07,0,0,0-1.81,7.2h5.93A32.39,32.39,0,0,1,126.63,349.18Z" transform="translate(-11.18 -223.82)"/><path class="cls-2" d="M125.63,358.37H119.7a18.93,18.93,0,0,0,2,7.58h5A31.73,31.73,0,0,1,125.63,358.37Z" transform="translate(-11.18 -223.82)"/><path class="cls-2" d="M150.51,347.19h4.62a19.42,19.42,0,0,0-9-7.58,17.51,17.51,0,0,1,2.25,3A23.75,23.75,0,0,1,150.51,347.19Z" transform="translate(-11.18 -223.82)"/><path class="cls-2" d="M151,366h5a18.92,18.92,0,0,0,2-7.58h-5.92A32.17,32.17,0,0,1,151,366Z" transform="translate(-11.18 -223.82)"/><path class="cls-2" d="M148.39,372.16a17.51,17.51,0,0,1-2.25,3,19.4,19.4,0,0,0,8.75-7.2h-4.51A23.89,23.89,0,0,1,148.39,372.16Z" transform="translate(-11.18 -223.82)"/><path class="cls-2" d="M151.11,349.18a32.39,32.39,0,0,1,1,7.2H158a18.71,18.71,0,0,0-1.81-7.2Z" transform="translate(-11.18 -223.82)"/><path class="cls-2" d="M114.5,315.39l-24.24,42,24.24,42H163l24.24-42-24.24-42Zm43.39,51.29c-.17.34-.34.67-.52,1A21.23,21.23,0,0,1,139,378.55h-.34a21.24,21.24,0,0,1-18.33-10.88q-.27-.48-.51-1a21.16,21.16,0,0,1-.19-18.23c.16-.35.32-.67.49-1A21.17,21.17,0,0,1,138.7,336.2H139a21.15,21.15,0,0,1,18.54,11.26c.17.32.33.64.48,1a21.11,21.11,0,0,1-.17,18.25Z" transform="translate(-11.18 -223.82)"/><path class="cls-2" d="M149.05,349.18h-9.19v7.2h10.26A30.59,30.59,0,0,0,149.05,349.18Z" transform="translate(-11.18 -223.82)"/><path class="cls-2" d="M139.86,367.93v8.56c3.41-.51,6.49-3.65,8.4-8.56Z" transform="translate(-11.18 -223.82)"/><path class="cls-2" d="M139.86,338.26v8.93h8.54C146.52,342.13,143.32,338.79,139.86,338.26Z" transform="translate(-11.18 -223.82)"/><path class="cls-2" d="M150.12,358.37H139.86V366h9.08A30,30,0,0,0,150.12,358.37Z" transform="translate(-11.18 -223.82)"/><rect class="cls-2" x="640.65" y="103.31" width="128.63" height="2.01"/><rect class="cls-2" x="512.02" y="103.31" width="128.63" height="2.01"/><rect class="cls-2" x="383.39" y="103.31" width="128.63" height="2.01"/><rect class="cls-2" x="254.75" y="103.31" width="128.63" height="2.01"/><path class="cls-2" d="M301.38,311.52c11.4,0,20.85-4.11,27-11.68l-9.72-9a20.89,20.89,0,0,1-16.46,7.76c-12.25,0-21-8.6-21-20.95s8.7-20.94,21-20.94a21.08,21.08,0,0,1,16.46,7.67l9.72-9c-6.17-7.48-15.62-11.6-26.93-11.6-20.39,0-35.53,14.12-35.53,33.85S281.08,311.52,301.38,311.52Z" transform="translate(-11.18 -223.82)"/><path class="cls-2" d="M378.34,311.52c11.4,0,20.85-4.11,27-11.68l-9.72-9a20.89,20.89,0,0,1-16.46,7.76c-12.25,0-20.95-8.6-20.95-20.95s8.7-20.94,20.95-20.94a21.08,21.08,0,0,1,16.46,7.67l9.72-9c-6.17-7.48-15.62-11.6-26.93-11.6-20.39,0-35.53,14.12-35.53,33.85S358,311.52,378.34,311.52Z" transform="translate(-11.18 -223.82)"/><path class="cls-2" d="M491.21,277.67c0-19.82-14.68-32.72-36.1-32.72H425.38V310.4h29.73C476.53,310.4,491.21,297.5,491.21,277.67ZM440.52,298V257.38h13.84c13,0,21.51,7.76,21.51,20.29S467.36,298,454.36,298Z" transform="translate(-11.18 -223.82)"/><polygon class="cls-2" points="513.88 86.58 529.02 86.58 529.02 33.47 549.97 33.47 549.97 21.12 492.93 21.12 492.93 33.47 513.88 33.47 513.88 86.58"/><rect class="cls-2" x="567.93" y="21.12" width="15.15" height="65.46"/><polygon class="cls-2" points="638.81 86.58 653.58 86.58 653.58 72.83 664.24 72.83 664.24 60.49 653.58 60.49 653.58 48.24 639.28 48.24 639.28 60.49 621.7 60.49 650.31 21.12 634.41 21.12 603.56 62.64 603.56 72.83 638.81 72.83 638.81 86.58"/><path class="cls-2" d="M700.21,311.15a8.92,8.92,0,0,0,9.07-9.16,9.07,9.07,0,0,0-18.14,0A8.92,8.92,0,0,0,700.21,311.15Z" transform="translate(-11.18 -223.82)"/><path class="cls-2" d="M752.76,311.52c16.18,0,28.06-12.25,28.06-33.85s-11.88-33.85-28.06-33.85-28,12.25-28,33.85S736.68,311.52,752.76,311.52Zm0-54.89c7.58,0,12.81,6.18,12.81,21s-5.23,21-12.81,21-12.71-6.17-12.71-21S745.28,256.63,752.76,256.63Z" transform="translate(-11.18 -223.82)"/><path class="cls-2" d="M272.07,348.12a4,4,0,0,1,3,1.32l1.35-1.28a5.81,5.81,0,1,0,0,7.83l-1.35-1.29a3.92,3.92,0,0,1-3,1.34,4,4,0,1,1,0-7.92Z" transform="translate(-11.18 -223.82)"/><polygon class="cls-2" points="276.31 124.37 276.31 122.62 268.07 122.62 268.07 133.9 276.53 133.9 276.53 132.14 270.17 132.14 270.17 129.03 275.61 129.03 275.61 127.31 270.17 127.31 270.17 124.37 276.31 124.37"/><polygon class="cls-2" points="281.75 126.26 287.97 133.9 289.69 133.9 289.69 122.62 287.61 122.62 287.61 130.25 281.39 122.62 279.67 122.62 279.67 133.9 281.75 133.9 281.75 126.26"/><polygon class="cls-2" points="297.9 133.9 297.9 124.39 301.64 124.39 301.64 122.62 292.07 122.62 292.07 124.39 295.81 124.39 295.81 133.9 297.9 133.9"/><path class="cls-2" d="M324.84,357.72,322.25,354a3.6,3.6,0,0,0,2.4-3.56c0-2.5-1.84-4-4.8-4h-4.64v11.28h2.09v-3.29h2.55a3.1,3.1,0,0,0,.43,0l2.3,3.31Zm-5.09-5H317.3v-4.5h2.45c1.84,0,2.79.82,2.79,2.24S321.59,352.71,319.75,352.71Z" transform="translate(-11.18 -223.82)"/><path class="cls-2" d="M327,352.08a6.08,6.08,0,1,0,6.07-5.8A5.78,5.78,0,0,0,327,352.08Zm10,0a4,4,0,1,1-4-4A3.85,3.85,0,0,1,337,352.08Z" transform="translate(-11.18 -223.82)"/><path class="cls-2" d="M357.1,356l-1.35-1.29a3.92,3.92,0,0,1-3,1.34,4,4,0,1,1,0-7.92,4,4,0,0,1,3,1.32l1.35-1.28a5.81,5.81,0,1,0,0,7.83Z" transform="translate(-11.18 -223.82)"/><polygon class="cls-2" points="350.82 129.03 356.27 129.03 356.27 127.31 350.82 127.31 350.82 124.37 356.96 124.37 356.96 122.62 348.73 122.62 348.73 133.9 357.19 133.9 357.19 132.14 350.82 132.14 350.82 129.03"/><path class="cls-2" d="M381,350.45c0-2.5-1.83-4-4.8-4h-4.64v11.28h2.09v-3.29h2.55a3.24,3.24,0,0,0,.44,0l2.3,3.31h2.26l-2.6-3.71A3.6,3.6,0,0,0,381,350.45Zm-4.9,2.26H373.6v-4.5h2.45c1.84,0,2.79.82,2.79,2.24S377.89,352.71,376.05,352.71Z" transform="translate(-11.18 -223.82)"/><polygon class="cls-2" points="375.03 133.9 377.13 133.9 377.13 124.39 380.87 124.39 380.87 122.62 371.3 122.62 371.3 124.39 375.03 124.39 375.03 133.9"/><rect class="cls-2" x="383.25" y="122.62" width="2.09" height="11.28"/><polygon class="cls-2" points="397.42 124.37 397.42 122.62 389.19 122.62 389.19 133.9 391.28 133.9 391.28 129.58 396.73 129.58 396.73 127.81 391.28 127.81 391.28 124.37 397.42 124.37"/><rect class="cls-2" x="400.26" y="122.62" width="2.09" height="11.28"/><path class="cls-2" d="M427.08,356l-1.35-1.29a3.9,3.9,0,0,1-3,1.34,4,4,0,1,1,0-7.92,4,4,0,0,1,3,1.32l1.35-1.28a5.81,5.81,0,1,0,0,7.83Z" transform="translate(-11.18 -223.82)"/><path class="cls-2" d="M438.1,357.72h2.19l-5.09-11.28h-2.06l-5.08,11.28h2.16l1.11-2.61H437ZM432,353.46l2.11-4.93,2.13,4.93Z" transform="translate(-11.18 -223.82)"/><path class="cls-2" d="M447.45,346.44h-4.93v11.28h4.93c3.66,0,6.16-2.26,6.16-5.64S451.11,346.44,447.45,346.44Zm-.09,9.51h-2.74v-7.74h2.74c2.51,0,4.14,1.53,4.14,3.87S449.87,356,447.36,356Z" transform="translate(-11.18 -223.82)"/><path class="cls-2" d="M461.9,346.28a5.81,5.81,0,1,0,6.07,5.8A5.77,5.77,0,0,0,461.9,346.28Zm0,9.76a4,4,0,1,1,4-4A3.84,3.84,0,0,1,461.9,356Z" transform="translate(-11.18 -223.82)"/><path class="cls-2" d="M480.44,350.45c0-2.5-1.84-4-4.8-4H471v11.28h2.09v-3.29h2.55a3.24,3.24,0,0,0,.44,0l2.3,3.31h2.25L478,354A3.6,3.6,0,0,0,480.44,350.45Zm-4.9,2.26h-2.45v-4.5h2.45c1.84,0,2.79.82,2.79,2.24S477.38,352.71,475.54,352.71Z" transform="translate(-11.18 -223.82)"/><path class="cls-2" d="M493.76,346.44h-4.93v11.28h4.93c3.66,0,6.15-2.26,6.15-5.64S497.42,346.44,493.76,346.44Zm-.1,9.51h-2.74v-7.74h2.74c2.51,0,4.14,1.53,4.14,3.87S496.17,356,493.66,356Z" transform="translate(-11.18 -223.82)"/><polygon class="cls-2" points="493.85 129.03 499.29 129.03 499.29 127.31 493.85 127.31 493.85 124.37 499.99 124.37 499.99 122.62 491.75 122.62 491.75 133.9 500.21 133.9 500.21 132.14 493.85 132.14 493.85 129.03"/><path class="cls-2" d="M524.71,346.44h-4.93v11.28h4.93c3.66,0,6.16-2.26,6.16-5.64S528.37,346.44,524.71,346.44Zm-.09,9.51h-2.74v-7.74h2.74c2.51,0,4.14,1.53,4.14,3.87S527.13,356,524.62,356Z" transform="translate(-11.18 -223.82)"/><polygon class="cls-2" points="524.8 129.03 530.25 129.03 530.25 127.31 524.8 127.31 524.8 124.37 530.94 124.37 530.94 122.62 522.71 122.62 522.71 133.9 531.17 133.9 531.17 132.14 524.8 132.14 524.8 129.03"/><path class="cls-2" d="M546.86,349.55c0-.85.71-1.53,2.44-1.53a6.29,6.29,0,0,1,3.11.88l.67-1.62a7.13,7.13,0,0,0-3.76-1c-3.09,0-4.54,1.54-4.54,3.37,0,4.18,6.7,2.59,6.7,5,0,.84-.74,1.47-2.5,1.47a6.28,6.28,0,0,1-3.72-1.24l-.72,1.62a7.22,7.22,0,0,0,4.44,1.36c3.1,0,4.56-1.55,4.56-3.35C553.54,350.39,546.86,352,546.86,349.55Z" transform="translate(-11.18 -223.82)"/><path class="cls-2" d="M559.9,346.44l-5.07,11.28H557l1.11-2.61h5.64l1.13,2.61h2.19L562,346.44Zm-1.09,7,2.11-4.93,2.12,4.93Z" transform="translate(-11.18 -223.82)"/><path class="cls-2" d="M578.73,350.45c0-2.5-1.83-4-4.8-4h-4.64v11.28h2.1v-3.29h2.54a3.24,3.24,0,0,0,.44,0l2.3,3.31h2.26l-2.6-3.71A3.6,3.6,0,0,0,578.73,350.45Zm-4.9,2.26h-2.44v-4.5h2.44c1.84,0,2.79.82,2.79,2.24S575.67,352.71,573.83,352.71Z" transform="translate(-11.18 -223.82)"/><path class="cls-2" d="M591.31,350.45c0-2.5-1.83-4-4.8-4h-4.64v11.28H584v-3.29h2.54a3.24,3.24,0,0,0,.44,0l2.3,3.31h2.25L588.91,354A3.6,3.6,0,0,0,591.31,350.45Zm-4.9,2.26H584v-4.5h2.44c1.84,0,2.79.82,2.79,2.24S588.25,352.71,586.41,352.71Z" transform="translate(-11.18 -223.82)"/><path class="cls-2" d="M599.72,346.28a5.81,5.81,0,1,0,6.07,5.8A5.77,5.77,0,0,0,599.72,346.28Zm0,9.76a4,4,0,1,1,4-4A3.85,3.85,0,0,1,599.72,356Z" transform="translate(-11.18 -223.82)"/><polygon class="cls-2" points="599.73 122.62 597.63 122.62 597.63 133.9 605.63 133.9 605.63 132.12 599.73 132.12 599.73 122.62"/><polygon class="cls-2" points="610.18 122.62 608.09 122.62 608.09 133.9 616.08 133.9 616.08 132.12 610.18 132.12 610.18 122.62"/><path class="cls-2" d="M634.78,346.28a5.81,5.81,0,1,0,6.08,5.8A5.77,5.77,0,0,0,634.78,346.28Zm0,9.76a4,4,0,1,1,4-4A3.84,3.84,0,0,1,634.78,356Z" transform="translate(-11.18 -223.82)"/><polygon class="cls-2" points="636.5 124.39 640.24 124.39 640.24 133.9 642.33 133.9 642.33 124.39 646.07 124.39 646.07 122.62 636.5 122.62 636.5 124.39"/><polygon class="cls-2" points="650.54 129.03 655.99 129.03 655.99 127.31 650.54 127.31 650.54 124.37 656.68 124.37 656.68 122.62 648.45 122.62 648.45 133.9 656.91 133.9 656.91 132.14 650.54 132.14 650.54 129.03"/><path class="cls-2" d="M676.51,348.12a4,4,0,0,1,3,1.32l1.35-1.28a5.81,5.81,0,1,0,0,7.83l-1.35-1.29a3.9,3.9,0,0,1-3,1.34,4,4,0,1,1,0-7.92Z" transform="translate(-11.18 -223.82)"/><polygon class="cls-2" points="680.45 130.25 674.24 122.62 672.51 122.62 672.51 133.9 674.59 133.9 674.59 126.26 680.81 133.9 682.53 133.9 682.53 122.62 680.45 122.62 680.45 130.25"/><path class="cls-2" d="M702.82,346.28a5.81,5.81,0,1,0,6.07,5.8A5.77,5.77,0,0,0,702.82,346.28Zm0,9.76a4,4,0,1,1,4-4A3.84,3.84,0,0,1,702.82,356Z" transform="translate(-11.18 -223.82)"/><polygon class="cls-2" points="702.83 122.62 700.73 122.62 700.73 133.9 708.72 133.9 708.72 132.12 702.83 132.12 702.83 122.62"/><path class="cls-2" d="M727.43,346.28a5.81,5.81,0,1,0,6.07,5.8A5.77,5.77,0,0,0,727.43,346.28Zm0,9.76a4,4,0,1,1,4-4A3.84,3.84,0,0,1,727.43,356Z" transform="translate(-11.18 -223.82)"/><polygon class="cls-2" points="719.43 119.49 717.06 119.49 714.89 121.7 716.63 121.7 719.43 119.49"/><path class="cls-2" d="M741.92,348.12A4.19,4.19,0,0,1,745,349.4l1.32-1.28a6.23,6.23,0,0,0-10.63,4,5.75,5.75,0,0,0,6.07,5.8,7.16,7.16,0,0,0,4.42-1.44V352h-2v3.51a4.58,4.58,0,0,1-2.33.58,4,4,0,1,1,0-7.92Z" transform="translate(-11.18 -223.82)"/><rect class="cls-2" x="738.58" y="122.62" width="2.09" height="11.28"/><path class="cls-2" d="M761,348.12a3.93,3.93,0,0,1,3,1.32l1.36-1.28a5.81,5.81,0,1,0,0,7.83l-1.36-1.29a4,4,0,1,1-3-6.58Z" transform="translate(-11.18 -223.82)"/><path class="cls-2" d="M773.25,346.28a5.81,5.81,0,1,0,6.07,5.8A5.77,5.77,0,0,0,773.25,346.28Zm0,9.76a4,4,0,1,1,4-4A3.84,3.84,0,0,1,773.25,356Z" transform="translate(-11.18 -223.82)"/><path class="cls-2" d="M271.38,367.91h-4.64v11.28h2.1v-3.25h2.54c3,0,4.8-1.53,4.8-4S274.35,367.91,271.38,367.91Zm-.1,6.26h-2.44v-4.48h2.44c1.84,0,2.79.82,2.79,2.24S273.12,374.17,271.28,374.17Z" transform="translate(-11.18 -223.82)"/><path class="cls-2" d="M282,367.91l-5.07,11.28h2.16l1.11-2.61h5.64l1.13,2.61h2.19l-5.09-11.28Zm-1.09,7L283,370l2.13,4.93Z" transform="translate(-11.18 -223.82)"/><path class="cls-2" d="M300.82,371.93c0-2.5-1.83-4-4.8-4h-4.64v11.28h2.1v-3.28H296a3.24,3.24,0,0,0,.44,0l2.3,3.3H301l-2.6-3.7A3.62,3.62,0,0,0,300.82,371.93Zm-4.89,2.25h-2.45v-4.49h2.45c1.83,0,2.78.82,2.78,2.24S297.76,374.18,295.93,374.18Z" transform="translate(-11.18 -223.82)"/><path class="cls-2" d="M307.44,367.91l-5.07,11.28h2.16l1.11-2.61h5.64l1.12,2.61h2.2l-5.1-11.28Zm-1.09,7,2.11-4.93,2.12,4.93Z" transform="translate(-11.18 -223.82)"/><polygon class="cls-2" points="312.99 144.09 310.9 144.09 310.9 155.37 318.89 155.37 318.89 153.6 312.99 153.6 312.99 144.09"/><path class="cls-2" d="M336.09,367.91,331,379.19h2.16l1.11-2.61h5.64l1.13,2.61h2.19l-5.09-11.28Zm-1.09,7,2.11-4.93,2.13,4.93Z" transform="translate(-11.18 -223.82)"/><rect class="cls-2" x="339.55" y="144.09" width="2.09" height="11.28"/><polygon class="cls-2" points="353.44 151.73 347.22 144.09 345.49 144.09 345.49 155.37 347.57 155.37 347.57 147.73 353.79 155.37 355.51 155.37 355.51 144.09 353.44 144.09 353.44 151.73"/><path class="cls-2" d="M375.46,367.91h-4.93v11.28h4.93c3.65,0,6.15-2.25,6.15-5.64S379.11,367.91,375.46,367.91Zm-.1,9.51h-2.74v-7.73h2.74c2.51,0,4.14,1.53,4.14,3.86S377.87,377.42,375.36,377.42Z" transform="translate(-11.18 -223.82)"/><path class="cls-2" d="M392.35,374.2c0,2.32-1,3.32-2.85,3.32s-2.87-1-2.87-3.32v-6.29h-2.09v6.37c0,3.29,1.85,5.07,4.94,5.07s4.93-1.78,4.93-5.07v-6.37h-2.06Z" transform="translate(-11.18 -223.82)"/><path class="cls-2" d="M399.52,371c0-.85.71-1.53,2.45-1.53a6.26,6.26,0,0,1,3.11.89l.66-1.63a7.2,7.2,0,0,0-3.76-1c-3.09,0-4.54,1.55-4.54,3.37,0,4.19,6.7,2.59,6.7,5,0,.83-.74,1.46-2.5,1.46a6.22,6.22,0,0,1-3.72-1.24L397.2,378a7.22,7.22,0,0,0,4.44,1.35c3.1,0,4.56-1.54,4.56-3.35C406.2,371.86,399.52,373.42,399.52,371Z" transform="translate(-11.18 -223.82)"/><polygon class="cls-2" points="396.29 145.86 400.03 145.86 400.03 155.37 402.12 155.37 402.12 145.86 405.86 145.86 405.86 144.09 396.29 144.09 396.29 145.86"/><path class="cls-2" d="M428.87,371.93c0-2.5-1.84-4-4.81-4h-4.64v11.28h2.1v-3.28h2.54a3.24,3.24,0,0,0,.44,0l2.3,3.3h2.26l-2.59-3.7A3.62,3.62,0,0,0,428.87,371.93Zm-4.9,2.25h-2.45v-4.49H424c1.83,0,2.79.82,2.79,2.24S425.8,374.18,424,374.18Z" transform="translate(-11.18 -223.82)"/><rect class="cls-2" x="420.82" y="144.09" width="2.09" height="11.28"/><path class="cls-2" d="M441.43,367.91l-5.08,11.28h2.16l1.11-2.61h5.64l1.13,2.61h2.19l-5.09-11.28Zm-1.1,7,2.11-4.93,2.13,4.93Z" transform="translate(-11.18 -223.82)"/><polygon class="cls-2" points="452.13 148.76 450.17 148.76 450.17 151.04 446.48 151.04 451.71 144.09 449.47 144.09 443.92 151.36 443.92 152.81 450.1 152.81 450.1 155.37 452.13 155.37 452.13 152.81 454.13 152.81 454.13 151.04 452.13 151.04 452.13 148.76"/><ellipse class="cls-2" cx="457.4" cy="154.15" rx="1.32" ry="1.34"/><path class="cls-2" d="M476.57,367.75c-2.68,0-4.71,2.1-4.71,5.8s2,5.8,4.71,5.8,4.72-2.09,4.72-5.8S479.26,367.75,476.57,367.75Zm0,9.78c-1.53,0-2.6-1.25-2.6-4s1.07-4,2.6-4,2.61,1.26,2.61,4S478.12,377.53,476.57,377.53Z" transform="translate(-11.18 -223.82)"/><path class="cls-2" d="M61.35,308.75c-.38-2.11-2.59-3.38-4.54-4.51a11,11,0,0,1-2.71-1.9,2,2,0,0,1-.54-1.64,3,3,0,0,1,.72-1.43l-.27-.42-2.31,1.48,8.16,9.42a5.81,5.81,0,0,1,1,1.79A4.73,4.73,0,0,0,61.35,308.75Z" transform="translate(-11.18 -223.82)"/><path class="cls-2" d="M58,312.76a2.35,2.35,0,1,0-.24,3.32,2.37,2.37,0,0,0,.8-2,2.33,2.33,0,0,0-.33-1A2.54,2.54,0,0,0,58,312.76Zm-.86,2.6a1.4,1.4,0,1,1,.14-2v0a1.38,1.38,0,0,1,.33,1A1.4,1.4,0,0,1,57.15,315.36Z" transform="translate(-11.18 -223.82)"/><path class="cls-2" d="M64.5,315.06a4.33,4.33,0,0,0-3.23-1.34,4.76,4.76,0,0,1,.07.66v3.91H63v2a11.12,11.12,0,0,1,1.48.55C65.92,318.66,65.92,316.65,64.5,315.06Z" transform="translate(-11.18 -223.82)"/><path class="cls-2" d="M48.29,300.5a2.9,2.9,0,0,0-1.79-1,3,3,0,0,0-2.43.67A3,3,0,1,0,49,302.08,2.94,2.94,0,0,0,48.29,300.5Zm-.53,2.37a1.78,1.78,0,0,1-3.08.76,1.78,1.78,0,0,1-.06-2.28,1.88,1.88,0,0,1,.24-.25,1.78,1.78,0,0,1,2.9,1.77Z" transform="translate(-11.18 -223.82)"/><path class="cls-2" d="M48.29,322.18h.28a4.14,4.14,0,0,1,1.27-1.12l.26-.17h-.28A4.65,4.65,0,0,0,48.29,322.18Z" transform="translate(-11.18 -223.82)"/><path class="cls-2" d="M64.26,292.33a1.3,1.3,0,0,0,.26-.14A1.89,1.89,0,1,0,62.46,289a1.84,1.84,0,0,0-.6.64,1.89,1.89,0,0,0,2.4,2.67Zm-1.36-2.65a1.1,1.1,0,1,1-.33,1.52A1.1,1.1,0,0,1,62.9,289.68Z" transform="translate(-11.18 -223.82)"/><path class="cls-2" d="M51.32,294.68l.45-.3-.25-.39,1.41-.8-.25-.43.75-.44a6.22,6.22,0,0,0-3-1.79,5.18,5.18,0,0,0-6.38,5.79,8.75,8.75,0,0,0,.16,1.08,5.73,5.73,0,0,1,4.86.43l3-1.92Z" transform="translate(-11.18 -223.82)"/><path class="cls-2" d="M52.47,320.89A4.91,4.91,0,0,0,51,322.16v0h.28v0a4.88,4.88,0,0,1,1.51-1.27Z" transform="translate(-11.18 -223.82)"/><path class="cls-2" d="M53.13,320.89a4.88,4.88,0,0,0-1.51,1.27l0,0h.28l0,0a4.84,4.84,0,0,1,1.5-1.27Z" transform="translate(-11.18 -223.82)"/><path class="cls-2" d="M72.36,290.67a1.11,1.11,0,0,0,.49.47,1.15,1.15,0,0,0,1,0,1,1,0,0,0,.25-.17,1.15,1.15,0,0,0,.37-1.34,1.16,1.16,0,0,0-1.52-.62,1.25,1.25,0,0,0-.12.08,1,1,0,0,0-.41.41v0a1.13,1.13,0,0,0-.08,1A1.05,1.05,0,0,0,72.36,290.67Zm.67-1.13.07,0a.64.64,0,0,1,.43,0,.76.76,0,0,1,.16.06.75.75,0,0,1,.29.32.67.67,0,0,1-.36.87s-.06,0-.09,0a.65.65,0,0,1-.79-.38A.67.67,0,0,1,73,289.54Z" transform="translate(-11.18 -223.82)"/><path class="cls-2" d="M49.61,322.18h.28l0,0a4.88,4.88,0,0,1,1.51-1.27h-.28a5.64,5.64,0,0,0-1.3,1A3,3,0,0,0,49.61,322.18Z" transform="translate(-11.18 -223.82)"/><path class="cls-2" d="M51.8,320.89a5,5,0,0,0-1.51,1.27l0,0h.28l0,0a4.88,4.88,0,0,1,1.51-1.27Z" transform="translate(-11.18 -223.82)"/><path class="cls-2" d="M49,322.18h.28a3.36,3.36,0,0,1,.61-.64,5.88,5.88,0,0,1,.92-.65h-.28c-.22.13-.43.28-.64.43A3.64,3.64,0,0,0,49,322.18Z" transform="translate(-11.18 -223.82)"/><path class="cls-2" d="M75.27,298.54a.36.36,0,0,0-.29.28.35.35,0,0,0,.68.14A.35.35,0,0,0,75.27,298.54Z" transform="translate(-11.18 -223.82)"/><path class="cls-2" d="M69.45,300.88a.47.47,0,0,0-.5.14.75.75,0,0,0-.06.13.45.45,0,0,0,.26.59.47.47,0,0,0,.51-.15.45.45,0,0,0,0-.55A.42.42,0,0,0,69.45,300.88Z" transform="translate(-11.18 -223.82)"/><path class="cls-2" d="M71.48,298.6a.36.36,0,0,0-.39.11.35.35,0,0,0,.15.55.36.36,0,0,0,.39-.11A.35.35,0,0,0,71.48,298.6Z" transform="translate(-11.18 -223.82)"/><rect class="cls-2" x="35.56" y="104" width="3.79" height="3.48"/><path class="cls-2" d="M83.9,269.61H35.42l-24.24,42,24.24,42H83.9l24.23-42Zm-15,65.68-25.31,0v-3.42h.48V324a1.67,1.67,0,0,1,0-.32h.15c.47-1.65,2.41-2.84,5-3.54h.59v-1.87H52.6a5.48,5.48,0,0,1-1.33-1.09l-.26-.3L42,306.43a5.69,5.69,0,0,1,.58-8,6.76,6.76,0,0,1,.77-.55,11.6,11.6,0,0,1-.23-1.45,6.23,6.23,0,0,1,7.66-6.88,7.26,7.26,0,0,1,3.61,2.27l.82-.47.26.45L62.05,288a3,3,0,0,1,2.71-.1h3.29v1.2h2.39v-1.19h2.85a2.19,2.19,0,0,1,.77,4.25V295h.18a1.57,1.57,0,0,1,.58,1.21v1.44H71.67v-1.43a1.52,1.52,0,0,1,.58-1.21h.11v-2.67H70.44v-1.19H68.05v1.19H65.87a3.34,3.34,0,0,1-.61.64l-9.75,7.2-.26-.39-.45.29-.37-.58a2.64,2.64,0,0,0-.62,1.25,1.76,1.76,0,0,0,.48,1.43A11,11,0,0,0,56.94,304c2,1.15,4.26,2.46,4.67,4.68a5.22,5.22,0,0,1-.6,3.2,5.62,5.62,0,0,1,.18.79,5.37,5.37,0,0,1,4.08,1.68c1.71,1.93,1.76,4.4.15,7a4.17,4.17,0,0,1,2.06,2.35h0c0,.09,0,.19,0,.28s0,.1,0,.15h0v7.73h1.34Zm9.75-33.56-.76,4-.64,0L77.08,302a1,1,0,0,1-.25-.2l-1.68-2H71.66L70.25,302a1.29,1.29,0,0,1-.16.17l.53,3.69-.63.09-1.4-3.63-.07,0a1.17,1.17,0,0,1,0-1.81l2.44-2.11a.83.83,0,0,1,.16-.09.78.78,0,0,1,.4-.12h3.78a.86.86,0,0,1,.27.05h0l.11,0L78.36,300A1.16,1.16,0,0,1,78.63,301.73Z" transform="translate(-11.18 -223.82)"/><path class="cls-2" d="M53.62,325.68a.64.64,0,1,0,.63.64h0A.64.64,0,0,0,53.62,325.68Z" transform="translate(-11.18 -223.82)"/><path class="cls-2" d="M77.61,300.53a.46.46,0,0,0-.38.36v0a.45.45,0,0,0,.51.51.47.47,0,0,0,.38-.36.59.59,0,0,0,0-.19A.45.45,0,0,0,77.61,300.53Z" transform="translate(-11.18 -223.82)"/><path class="cls-2" d="M57.9,325.69a.63.63,0,1,0,.63.63A.63.63,0,0,0,57.9,325.69Z" transform="translate(-11.18 -223.82)"/><path class="cls-2" d="M60,325.69A.63.63,0,0,0,60,327a.64.64,0,0,0,.64-.63A.64.64,0,0,0,60,325.69Z" transform="translate(-11.18 -223.82)"/><path class="cls-2" d="M49.44,320.89h-.28a4.65,4.65,0,0,0-1.53,1.29h.27A4.79,4.79,0,0,1,49.44,320.89Z" transform="translate(-11.18 -223.82)"/><path class="cls-2" d="M55.76,325.68a.64.64,0,0,0-.63.64.63.63,0,0,0,1.26,0A.64.64,0,0,0,55.76,325.68Z" transform="translate(-11.18 -223.82)"/><path class="cls-2" d="M235.61,297.87H199.87v23.32h35.74Zm-2.8,20.62a.83.83,0,0,1-.85.81H203.51a.83.83,0,0,1-.85-.81V300.21a.83.83,0,0,1,.85-.81H232a.83.83,0,0,1,.85.81Z" transform="translate(-11.18 -223.82)"/><rect class="cls-2" x="193.18" y="77.2" width="26.74" height="16.66"/><polygon class="cls-2" points="225.08 98.8 188.04 98.8 184.67 100.26 228.55 100.26 225.08 98.8"/><rect class="cls-2" x="181.98" y="101.7" width="49.36" height="0.51"/><path class="cls-2" d="M242,269.61H193.57l-24.24,42,24.24,42H242l24.24-42Zm1.33,57.86H192.31a.79.79,0,0,1-.85-.72v-2s0-.06,0-.09a.07.07,0,0,0,0-.05l0-.08a.08.08,0,0,0,0,0,.36.36,0,0,1,.07-.1v0l.09-.09,0,0,.08-.06.05,0,0,0,6.24-2.69V297.15a.79.79,0,0,1,.86-.72h37.44a.79.79,0,0,1,.85.72v24.31l6.44,2.69.06,0,.05,0,.09.06,0,0,.09.1,0,0,.06.09s0,0,0,0l0,.08a.09.09,0,0,0,0,.05s0,.06,0,.09v2A.79.79,0,0,1,243.37,327.47Z" transform="translate(-11.18 -223.82)"/></svg>